# xmcd
#
# Track frame offsets:
#	150
#	26051
#	50352
#	70948
#	89704
#	100956
#	121907
#	135870
#	157363
#	174524
#	194808
#	217238
#	239923
#	258116
#	277108
#	292079
#
# Disc length: 4128 seconds
#
# Revision: 0
# Processed by: cddbd v1.5.2PL0 Copyright (c) Steve Scherf et al.
# Submitted via: EasyCDDAExtractor 2010.4.0.0
#
DISCID=08101e10
DTITLE=SDM - Blues nocy bieszczadzkiej
DYEAR=2010
DGENRE=
TTITLE0=Prosto od serca
TTITLE1=Makatka z Tymbarku
TTITLE2=Makatka ze Zlocienca
TTITLE3=Bejdak
TTITLE4=Kosmiczny szept
TTITLE5=Pod wieczor
TTITLE6=Miedziana dziewczyna
TTITLE7=Makatka na dwoje
TTITLE8=Bialy kompas
TTITLE9=Makatka mocno katowicka
TTITLE10=19-80 Blues
TTITLE11=Majka
TTITLE12=Zawirowal swiat
TTITLE13=Wiem
TTITLE14=Do przyjaciela
TTITLE15=Blues nocy bieszczadzkiej
EXTD=
EXTT0=
EXTT1=
EXTT2=
EXTT3=
EXTT4=
EXTT5=
EXTT6=
EXTT7=
EXTT8=
EXTT9=
EXTT10=
EXTT11=
EXTT12=
EXTT13=
EXTT14=
EXTT15=
PLAYORDER=
